<svg width="24" height="24" viewBox="0 0 24 24"
     xmlns="http://www.w3.org/2000/svg"
     fill="none"
     stroke="currentColor"
     stroke-width="1.8"
     stroke-linecap="round"
     stroke-linejoin="round">

  <!-- Pig body -->
  <path d="
    M7 8
    C8 6.5 10 6 13 6
    C17 6 19 8.5 19 12
    C19 14 18.2 15.5 17 16.5
    V18
    H15.5
    L15 17
    H10
    L9.5 18
    H8
    V16.5
    C6.8 15.8 6 14.2 6 12.5
    C6 11 6.4 9.5 7 8
    Z"/>

  <!-- Ear -->
  <path d="M9 7 L8 5.5 L10.5 6.5"/>

  <!-- Snout -->
  <path d="M6 10 H4.5 V13 H6"/>

  <!-- Eye -->
  <circle cx="9.5" cy="10" r=".5" fill="currentColor" stroke="none"/>

  <!-- Tail -->
  <path d="M19 12.5 C20 12.5 20.5 13 20.5 13.8 C20.5 14.3 20.2 14.6 19.8 14.6"/>

  <!-- AI sparkle -->
  <path d="M13 9 L13.5 10.5 L15 11 L13.5 11.5 L13 13 L12.5 11.5 L11 11 L12.5 10.5 Z"/>

</svg>